export const demo4 = {
	"patterns": [
		{
			"drums": {
				"kick": [0, 1, 1, 1, 0, 0, 1, 0, 0, 1, 1, 1, 0, 0, 1, 0],
				"snare": [0, 0, 0, 0, 0, 0, 0, 0, 0, 0, 0, 0, 0, 0, 0, 0],
				"clap": [0, 0, 0, 0, 0, 0, 0, 0, 0, 0, 0, 0, 0, 0, 0, 0],
				"hat": [0, 0, 0, 0, 0, 0, 0, 0, 0, 0, 0, 0, 0, 0, 0, 0],
				"perc": [0, 0, 0, 0, 0, 0, 0, 0, 0, 0, 0, 0, 0, 0, 0, 0],
				"bell": [0, 0, 0, 0, 0, 0, 0, 0, 0, 0, 0, 0, 0, 0, 0, 0]
			},
			"channelSettings": {
				"drums": { "muted": false, "delayTime": "4n", "delayFeedback": 0.25 },
				"bass": { "wave": "sine", "decay": 2, "muted": false },
				"lead": { "wave": "square", "decay": 5, "muted": false },
				"arp": { "wave": "sine", "decay": 4, "muted": false }
			},
			"bass": [
				{
					"note": 36,
					"degree": 36,
					"velocity": 8,
					"level": 2,
					"direction": 0,
					"decay": 5,
					"mod": 100
				},
				{ "note": 24, "degree": 24, "velocity": 0, "level": 0, "direction": 0, "decay": 5 },
				{ "note": 24, "degree": 24, "velocity": 0, "level": 0, "direction": 0, "decay": 5 },
				{
					"note": 48,
					"degree": 48,
					"velocity": 5,
					"level": 1,
					"direction": 0,
					"decay": 5,
					"mod": 100
				},
				{ "note": 24, "degree": 24, "velocity": 0, "level": 0, "direction": 0, "decay": 5 },
				{ "note": 24, "degree": 24, "velocity": 0, "level": 0, "direction": 0, "decay": 5 },
				{ "note": 24, "degree": 24, "velocity": 0, "level": 0, "direction": 0, "decay": 5 },
				{
					"note": 36,
					"degree": 36,
					"velocity": 8,
					"level": 2,
					"direction": 0,
					"decay": 5,
					"mod": 100
				},
				{ "note": 48, "degree": 48, "velocity": 0, "level": 0, "direction": 0, "decay": 5 },
				{ "note": 24, "degree": 24, "velocity": 0, "level": 0, "direction": 0, "decay": 5 },
				{
					"note": 48,
					"degree": 48,
					"velocity": 8,
					"level": 2,
					"direction": 0,
					"decay": 5,
					"mod": 100
				},
				{ "note": 60, "degree": 60, "velocity": 0, "level": 0, "direction": 0, "decay": 5 },
				{ "note": 24, "degree": 24, "velocity": 0, "level": 0, "direction": 0, "decay": 5 },
				{ "note": 24, "degree": 24, "velocity": 0, "level": 0, "direction": 0, "decay": 5 },
				{ "note": 24, "degree": 24, "velocity": 0, "level": 0, "direction": 0, "decay": 5 },
				{ "note": 24, "degree": 24, "velocity": 0, "level": 0, "direction": 0, "decay": 5 }
			],
			"lead": [
				{
					"note": 53,
					"degree": 53,
					"velocity": 0,
					"level": 0,
					"direction": 0,
					"decay": 5,
					"mod": 5
				},
				{
					"note": 53,
					"degree": 53,
					"velocity": 0,
					"level": 0,
					"direction": 0,
					"decay": 5,
					"mod": 30
				},
				{
					"note": 55,
					"degree": 55,
					"velocity": 0,
					"level": 0,
					"direction": 0,
					"decay": 5,
					"mod": 15
				},
				{
					"note": 52,
					"degree": 52,
					"velocity": 0,
					"level": 0,
					"direction": 0,
					"decay": 5,
					"mod": 5
				},
				{ "note": 48, "degree": 48, "velocity": 0, "level": 0, "direction": 0, "decay": 5 },
				{
					"note": 57,
					"degree": 57,
					"velocity": 0,
					"level": 0,
					"direction": 0,
					"decay": 5,
					"mod": 15
				},
				{
					"note": 53,
					"degree": 53,
					"velocity": 0,
					"level": 0,
					"direction": 0,
					"decay": 5,
					"mod": 25
				},
				{
					"note": 52,
					"degree": 52,
					"velocity": 0,
					"level": 0,
					"direction": 0,
					"decay": 5,
					"mod": 20
				},
				{
					"note": 61,
					"degree": 61,
					"velocity": 0,
					"level": 0,
					"direction": 0,
					"decay": 5,
					"mod": 5
				},
				{ "note": 48, "degree": 48, "velocity": 0, "level": 0, "direction": 0, "decay": 5 },
				{ "note": 53, "degree": 53, "velocity": 0, "level": 0, "direction": 0, "decay": 5 },
				{
					"note": 53,
					"degree": 53,
					"velocity": 0,
					"level": 0,
					"direction": 0,
					"decay": 5,
					"mod": 20
				},
				{ "note": 52, "degree": 52, "velocity": 0, "level": 0, "direction": 0, "decay": 5 },
				{ "note": 55, "degree": 55, "velocity": 0, "level": 0, "direction": 0, "decay": 5 },
				{ "note": 48, "degree": 48, "velocity": 0, "level": 0, "direction": 0, "decay": 5 },
				{ "note": 48, "degree": 48, "velocity": 0, "level": 0, "direction": 0, "decay": 5 }
			],
			"arp": [
				{
					"note": 50,
					"degree": 50,
					"velocity": 8,
					"level": 2,
					"chordId": "min",
					"decay": 5,
					"mod": 75
				},
				{ "note": 60, "degree": 60, "velocity": 0, "level": 0, "chordId": "maj" },
				{ "note": 60, "degree": 60, "velocity": 0, "level": 0, "chordId": "maj" },
				{ "note": 60, "degree": 60, "velocity": 0, "level": 0, "chordId": "maj" },
				{
					"note": 48,
					"degree": 48,
					"velocity": 8,
					"level": 2,
					"chordId": "maj",
					"decay": 5,
					"mod": 75
				},
				{ "note": 60, "degree": 60, "velocity": 0, "level": 0, "chordId": "maj" },
				{ "note": 60, "degree": 60, "velocity": 0, "level": 0, "chordId": "maj" },
				{ "note": 60, "degree": 60, "velocity": 0, "level": 0, "chordId": "maj" },
				{
					"note": 52,
					"degree": 52,
					"velocity": 4,
					"level": 1,
					"chordId": "min",
					"decay": 5,
					"mod": 75
				},
				{ "note": 60, "degree": 60, "velocity": 0, "level": 0, "chordId": "maj" },
				{ "note": 60, "degree": 60, "velocity": 0, "level": 0, "chordId": "maj" },
				{ "note": 60, "degree": 60, "velocity": 0, "level": 0, "chordId": "maj" },
				{
					"note": 53,
					"degree": 53,
					"velocity": 8,
					"level": 2,
					"chordId": "maj",
					"decay": 5,
					"mod": 85
				},
				{ "note": 60, "degree": 60, "velocity": 0, "level": 0, "chordId": "maj" },
				{ "note": 60, "degree": 60, "velocity": 0, "level": 0, "chordId": "maj" },
				{ "note": 60, "degree": 60, "velocity": 0, "level": 0, "chordId": "maj" }
			]
		},
		{
			"drums": {
				"kick": [0, 1, 1, 1, 0, 0, 1, 0, 0, 1, 1, 1, 0, 0, 1, 0],
				"snare": [0, 0, 0, 0, 0, 0, 0, 0, 0, 0, 0, 0, 0, 0, 0, 0],
				"clap": [0, 0, 2, 0, 0, 0, 0, 0, 0, 0, 2, 0, 0, 0, 1, 0],
				"hat": [2, 0, 0, 0, 0, 2, 0, 2, 2, 0, 0, 0, 0, 2, 0, 2],
				"perc": [2, 0, 2, 0, 0, 2, 0, 0, 2, 0, 2, 0, 0, 2, 0, 0],
				"bell": [0, 0, 0, 0, 0, 0, 0, 0, 0, 0, 0, 0, 0, 0, 0, 0]
			},
			"channelSettings": {
				"drums": { "muted": false, "delayTime": "4n", "delayFeedback": 0.25 },
				"bass": { "wave": "sawtooth", "decay": 2, "muted": false },
				"lead": { "wave": "square", "decay": 4, "muted": false },
				"arp": { "wave": "square", "decay": 3, "muted": false }
			},
			"bass": [
				{
					"note": null,
					"degree": null,
					"velocity": 0,
					"level": 0,
					"direction": 0,
					"decay": 5,
					"mod": 0
				},
				{
					"note": 50,
					"degree": 50,
					"velocity": 8,
					"level": 2,
					"direction": 0,
					"decay": 5,
					"mod": 15
				},
				{
					"note": null,
					"degree": null,
					"velocity": 0,
					"level": 0,
					"direction": 0,
					"decay": 5,
					"mod": 0
				},
				{
					"note": 48,
					"degree": 48,
					"velocity": 5,
					"level": 1,
					"direction": 0,
					"decay": 5,
					"mod": 100
				},
				{
					"note": null,
					"degree": null,
					"velocity": 0,
					"level": 2,
					"direction": 0,
					"decay": 5,
					"mod": 0
				},
				{
					"note": null,
					"degree": null,
					"velocity": 0,
					"level": 2,
					"direction": 0,
					"decay": 5,
					"mod": 0
				},
				{
					"note": null,
					"degree": null,
					"velocity": 0,
					"level": 2,
					"direction": 0,
					"decay": 5,
					"mod": 0
				},
				{
					"note": 60,
					"degree": 60,
					"velocity": 8,
					"level": 2,
					"direction": 0,
					"decay": 5,
					"mod": 100
				},
				{
					"note": 48,
					"degree": 48,
					"velocity": 9,
					"level": 2,
					"direction": 0,
					"decay": 5,
					"mod": 50
				},
				{ "note": 33, "degree": 33, "velocity": 8, "level": 2, "direction": 0, "decay": 5 },
				{
					"note": 35,
					"degree": 35,
					"velocity": 8,
					"level": 2,
					"direction": 0,
					"decay": 5,
					"mod": 100
				},
				{ "note": 36, "degree": 36, "velocity": 8, "level": 2, "direction": 0, "decay": 5 },
				{ "note": 24, "degree": 24, "velocity": 0, "level": 0, "direction": 0, "decay": 5 },
				{ "note": 24, "degree": 24, "velocity": 0, "level": 0, "direction": 0, "decay": 5 },
				{ "note": 24, "degree": 24, "velocity": 8, "level": 2, "direction": 0, "decay": 5 },
				{ "note": 24, "degree": 24, "velocity": 8, "level": 2, "direction": 0, "decay": 5 }
			],
			"lead": [
				{
					"note": 60,
					"degree": 60,
					"velocity": 8,
					"level": 2,
					"direction": 0,
					"decay": 5,
					"mod": 60
				},
				{
					"note": null,
					"degree": null,
					"velocity": 0,
					"level": 0,
					"direction": 0,
					"decay": 5,
					"mod": 0
				},
				{
					"note": 55,
					"degree": 55,
					"velocity": 0,
					"level": 0,
					"direction": 0,
					"decay": 5,
					"mod": 15
				},
				{
					"note": null,
					"degree": null,
					"velocity": 0,
					"level": 2,
					"direction": 0,
					"decay": 5,
					"mod": 0
				},
				{
					"note": 64,
					"degree": 64,
					"velocity": 8,
					"level": 2,
					"direction": 0,
					"decay": 5,
					"mod": 55
				},
				{
					"note": 62,
					"degree": 62,
					"velocity": 8,
					"level": 2,
					"direction": 0,
					"decay": 5,
					"mod": 55
				},
				{
					"note": 60,
					"degree": 60,
					"velocity": 8,
					"level": 2,
					"direction": 0,
					"decay": 5,
					"mod": 55
				},
				{
					"note": 59,
					"degree": 59,
					"velocity": 8,
					"level": 2,
					"direction": 0,
					"decay": 5,
					"mod": 60
				},
				{
					"note": 61,
					"degree": 61,
					"velocity": 0,
					"level": 0,
					"direction": 0,
					"decay": 5,
					"mod": 5
				},
				{
					"note": null,
					"degree": null,
					"velocity": 0,
					"level": 2,
					"direction": 0,
					"decay": 5,
					"mod": 0
				},
				{ "note": 53, "degree": 53, "velocity": 0, "level": 0, "direction": 0, "decay": 5 },
				{
					"note": 60,
					"degree": 60,
					"velocity": 8,
					"level": 2,
					"direction": 0,
					"decay": 5,
					"mod": 20
				},
				{ "note": 55, "degree": 55, "velocity": 8, "level": 2, "direction": 0, "decay": 5 },
				{ "note": 55, "degree": 55, "velocity": 0, "level": 0, "direction": 0, "decay": 5 },
				{ "note": 62, "degree": 62, "velocity": 8, "level": 2, "direction": 0, "decay": 5 },
				{
					"note": null,
					"degree": null,
					"velocity": 0,
					"level": 2,
					"direction": 0,
					"decay": 5,
					"mod": 0
				}
			],
			"arp": [
				{
					"note": 48,
					"degree": 48,
					"velocity": 8,
					"level": 2,
					"chordId": "maj",
					"decay": 5,
					"mod": 75,
					"direction": 0
				},
				{ "note": 60, "degree": 60, "velocity": 0, "level": 0, "chordId": "maj" },
				{ "note": 60, "degree": 60, "velocity": 0, "level": 0, "chordId": "maj" },
				{ "note": 60, "degree": 60, "velocity": 0, "level": 0, "chordId": "maj" },
				{
					"note": 53,
					"degree": 53,
					"velocity": 8,
					"level": 2,
					"chordId": "maj",
					"decay": 5,
					"mod": 75,
					"direction": 0
				},
				{ "note": 60, "degree": 60, "velocity": 0, "level": 0, "chordId": "maj" },
				{ "note": 60, "degree": 60, "velocity": 0, "level": 0, "chordId": "maj" },
				{ "note": 60, "degree": 60, "velocity": 0, "level": 0, "chordId": "maj" },
				{
					"note": 55,
					"degree": 55,
					"velocity": 4,
					"level": 1,
					"chordId": "maj",
					"decay": 5,
					"mod": 75
				},
				{ "note": 60, "degree": 60, "velocity": 0, "level": 0, "chordId": "maj" },
				{ "note": 60, "degree": 60, "velocity": 0, "level": 0, "chordId": "maj" },
				{ "note": 60, "degree": 60, "velocity": 0, "level": 0, "chordId": "maj" },
				{
					"note": 53,
					"degree": 53,
					"velocity": 8,
					"level": 2,
					"chordId": "maj",
					"decay": 5,
					"mod": 85
				},
				{ "note": 60, "degree": 60, "velocity": 0, "level": 0, "chordId": "maj" },
				{ "note": 60, "degree": 60, "velocity": 0, "level": 0, "chordId": "maj" },
				{ "note": 60, "degree": 60, "velocity": 0, "level": 0, "chordId": "maj" }
			]
		},
		{
			"drums": {
				"kick": [0, 1, 1, 1, 0, 0, 1, 0, 0, 1, 1, 1, 0, 0, 1, 0],
				"snare": [1, 0, 1, 0, 0, 1, 0, 0, 1, 0, 0, 0, 0, 0, 1, 0],
				"clap": [0, 0, 0, 0, 0, 0, 0, 0, 0, 0, 0, 1, 0, 0, 0, 2],
				"hat": [0, 2, 0, 0, 1, 0, 0, 0, 2, 1, 0, 0, 0, 0, 2, 2],
				"perc": [0, 0, 2, 0, 0, 2, 2, 0, 0, 0, 2, 0, 0, 2, 2, 0],
				"bell": [0, 0, 0, 0, 0, 0, 0, 2, 0, 0, 0, 0, 0, 0, 0, 0]
			},
			"channelSettings": {
				"drums": { "muted": false, "delayTime": "4n", "delayFeedback": 0 },
				"bass": { "wave": "sine", "decay": 2, "muted": false },
				"lead": { "wave": "square", "decay": 5, "muted": false },
				"arp": { "wave": "sawtooth", "decay": 8, "muted": false }
			},
			"bass": [
				{
					"note": 36,
					"degree": 36,
					"velocity": 8,
					"level": 2,
					"direction": 0,
					"decay": 5,
					"mod": 45
				},
				{ "note": 24, "degree": 24, "velocity": 0, "level": 0, "direction": 0, "decay": 5 },
				{ "note": 24, "degree": 24, "velocity": 0, "level": 0, "direction": 0, "decay": 5 },
				{
					"note": 48,
					"degree": 48,
					"velocity": 5,
					"level": 1,
					"direction": 0,
					"decay": 5,
					"mod": 100
				},
				{ "note": 24, "degree": 24, "velocity": 0, "level": 0, "direction": 0, "decay": 5 },
				{ "note": 24, "degree": 24, "velocity": 0, "level": 0, "direction": 0, "decay": 5 },
				{ "note": 24, "degree": 24, "velocity": 0, "level": 0, "direction": 0, "decay": 5 },
				{
					"note": 36,
					"degree": 36,
					"velocity": 8,
					"level": 2,
					"direction": 0,
					"decay": 5,
					"mod": 100
				},
				{ "note": 48, "degree": 48, "velocity": 0, "level": 0, "direction": 0, "decay": 5 },
				{ "note": 24, "degree": 24, "velocity": 0, "level": 0, "direction": 0, "decay": 5 },
				{
					"note": 48,
					"degree": 48,
					"velocity": 8,
					"level": 2,
					"direction": 0,
					"decay": 5,
					"mod": 100
				},
				{ "note": 60, "degree": 60, "velocity": 0, "level": 0, "direction": 0, "decay": 5 },
				{ "note": 24, "degree": 24, "velocity": 0, "level": 0, "direction": 0, "decay": 5 },
				{ "note": 24, "degree": 24, "velocity": 0, "level": 0, "direction": 0, "decay": 5 },
				{ "note": 24, "degree": 24, "velocity": 0, "level": 0, "direction": 0, "decay": 5 },
				{ "note": 24, "degree": 24, "velocity": 0, "level": 0, "direction": 0, "decay": 5 }
			],
			"lead": [
				{ "note": 0, "degree": 0, "velocity": 8, "level": 2, "direction": 0, "decay": 5, "mod": 5 },
				{
					"note": 2,
					"degree": 2,
					"velocity": 8,
					"level": 2,
					"direction": 0,
					"decay": 5,
					"mod": 30
				},
				{
					"note": 0,
					"degree": 0,
					"velocity": 0,
					"level": 0,
					"direction": 0,
					"decay": 5,
					"mod": 15
				},
				{ "note": 2, "degree": 2, "velocity": 8, "level": 2, "direction": 0, "decay": 5, "mod": 5 },
				{ "note": 0, "degree": 0, "velocity": 8, "level": 2, "direction": 0, "decay": 5 },
				{
					"note": 2,
					"degree": 2,
					"velocity": 0,
					"level": 0,
					"direction": 0,
					"decay": 5,
					"mod": 15
				},
				{
					"note": 0,
					"degree": 0,
					"velocity": 8,
					"level": 2,
					"direction": 0,
					"decay": 5,
					"mod": 25
				},
				{
					"note": 2,
					"degree": 2,
					"velocity": 8,
					"level": 2,
					"direction": 0,
					"decay": 5,
					"mod": 20
				},
				{ "note": 0, "degree": 0, "velocity": 8, "level": 2, "direction": 0, "decay": 5, "mod": 5 },
				{ "note": 2, "degree": 2, "velocity": 8, "level": 2, "direction": 0, "decay": 5 },
				{ "note": 0, "degree": 0, "velocity": 0, "level": 0, "direction": 0, "decay": 5 },
				{
					"note": 2,
					"degree": 2,
					"velocity": 8,
					"level": 2,
					"direction": 0,
					"decay": 5,
					"mod": 20
				},
				{ "note": 0, "degree": 0, "velocity": 8, "level": 2, "direction": 0, "decay": 5 },
				{ "note": 2, "degree": 2, "velocity": 0, "level": 0, "direction": 0, "decay": 5 },
				{ "note": 0, "degree": 0, "velocity": 8, "level": 2, "direction": 0, "decay": 5 },
				{ "note": 2, "degree": 2, "velocity": 8, "level": 2, "direction": 0, "decay": 5 }
			],
			"arp": [
				{
					"note": 40,
					"degree": 40,
					"velocity": 8,
					"level": 2,
					"chordId": "min",
					"decay": 5,
					"mod": 45
				},
				{ "note": 60, "degree": 60, "velocity": 0, "level": 0, "chordId": "maj" },
				{ "note": 60, "degree": 60, "velocity": 0, "level": 0, "chordId": "maj" },
				{ "note": 60, "degree": 60, "velocity": 0, "level": 0, "chordId": "maj" },
				{
					"note": 48,
					"degree": 48,
					"velocity": 8,
					"level": 2,
					"chordId": "maj",
					"decay": 5,
					"mod": 75
				},
				{ "note": 60, "degree": 60, "velocity": 0, "level": 0, "chordId": "maj" },
				{ "note": 60, "degree": 60, "velocity": 0, "level": 0, "chordId": "maj" },
				{ "note": 60, "degree": 60, "velocity": 0, "level": 0, "chordId": "maj" },
				{
					"note": 52,
					"degree": 52,
					"velocity": 4,
					"level": 1,
					"chordId": "min",
					"decay": 5,
					"mod": 75
				},
				{ "note": 60, "degree": 60, "velocity": 0, "level": 0, "chordId": "maj" },
				{ "note": 60, "degree": 60, "velocity": 0, "level": 0, "chordId": "maj" },
				{ "note": 60, "degree": 60, "velocity": 0, "level": 0, "chordId": "maj" },
				{
					"note": 38,
					"degree": 38,
					"velocity": 8,
					"level": 2,
					"chordId": "min",
					"decay": 5,
					"mod": 85
				},
				{ "note": 60, "degree": 60, "velocity": 0, "level": 0, "chordId": "maj" },
				{ "note": 60, "degree": 60, "velocity": 0, "level": 0, "chordId": "maj" },
				{ "note": 60, "degree": 60, "velocity": 0, "level": 0, "chordId": "maj" }
			]
		},
		{
			"drums": {
				"kick": [0, 0, 0, 0, 0, 0, 0, 0, 0, 0, 0, 0, 0, 0, 0, 0],
				"snare": [0, 0, 0, 0, 0, 0, 0, 0, 0, 0, 0, 0, 0, 0, 0, 0],
				"clap": [0, 0, 0, 0, 0, 0, 0, 0, 0, 0, 0, 0, 0, 0, 0, 0],
				"hat": [0, 0, 0, 0, 0, 0, 0, 0, 0, 0, 0, 0, 0, 0, 0, 0],
				"perc": [0, 0, 0, 0, 0, 0, 0, 0, 0, 0, 0, 0, 0, 0, 0, 0],
				"bell": [0, 0, 0, 0, 0, 0, 0, 0, 0, 0, 0, 0, 0, 0, 0, 0]
			},
			"channelSettings": {
				"drums": { "muted": false, "delayTime": "4n", "delayFeedback": 0.25 },
				"bass": { "wave": "sawtooth", "decay": 2, "muted": false },
				"lead": { "wave": "square", "decay": 4, "muted": false },
				"arp": { "wave": "square", "decay": 3, "muted": false }
			},
			"bass": [
				{
					"note": null,
					"degree": null,
					"velocity": 0,
					"level": 0,
					"direction": 0,
					"decay": 5,
					"mod": 0
				},
				{
					"note": null,
					"degree": null,
					"velocity": 0,
					"level": 0,
					"direction": 0,
					"decay": 5,
					"mod": 0
				},
				{
					"note": null,
					"degree": null,
					"velocity": 0,
					"level": 0,
					"direction": 0,
					"decay": 5,
					"mod": 0
				},
				{
					"note": null,
					"degree": null,
					"velocity": 0,
					"level": 0,
					"direction": 0,
					"decay": 5,
					"mod": 0
				},
				{
					"note": null,
					"degree": null,
					"velocity": 0,
					"level": 0,
					"direction": 0,
					"decay": 5,
					"mod": 0
				},
				{
					"note": null,
					"degree": null,
					"velocity": 0,
					"level": 0,
					"direction": 0,
					"decay": 5,
					"mod": 0
				},
				{
					"note": null,
					"degree": null,
					"velocity": 0,
					"level": 0,
					"direction": 0,
					"decay": 5,
					"mod": 0
				},
				{
					"note": null,
					"degree": null,
					"velocity": 0,
					"level": 0,
					"direction": 0,
					"decay": 5,
					"mod": 0
				},
				{
					"note": null,
					"degree": null,
					"velocity": 0,
					"level": 0,
					"direction": 0,
					"decay": 5,
					"mod": 0
				},
				{
					"note": null,
					"degree": null,
					"velocity": 0,
					"level": 0,
					"direction": 0,
					"decay": 5,
					"mod": 0
				},
				{
					"note": null,
					"degree": null,
					"velocity": 0,
					"level": 0,
					"direction": 0,
					"decay": 5,
					"mod": 0
				},
				{
					"note": null,
					"degree": null,
					"velocity": 0,
					"level": 0,
					"direction": 0,
					"decay": 5,
					"mod": 0
				},
				{ "note": 24, "degree": 24, "velocity": 0, "level": 0, "direction": 0, "decay": 5 },
				{ "note": 24, "degree": 24, "velocity": 0, "level": 0, "direction": 0, "decay": 5 },
				{
					"note": null,
					"degree": null,
					"velocity": 0,
					"level": 0,
					"direction": 0,
					"decay": 5,
					"mod": 0
				},
				{
					"note": null,
					"degree": null,
					"velocity": 0,
					"level": 0,
					"direction": 0,
					"decay": 5,
					"mod": 0
				}
			],
			"lead": [
				{
					"note": null,
					"degree": null,
					"velocity": 0,
					"level": 0,
					"direction": 0,
					"decay": 5,
					"mod": 0
				},
				{
					"note": null,
					"degree": null,
					"velocity": 0,
					"level": 0,
					"direction": 0,
					"decay": 5,
					"mod": 0
				},
				{
					"note": 55,
					"degree": 55,
					"velocity": 0,
					"level": 0,
					"direction": 0,
					"decay": 5,
					"mod": 15
				},
				{
					"note": null,
					"degree": null,
					"velocity": 0,
					"level": 2,
					"direction": 0,
					"decay": 5,
					"mod": 0
				},
				{
					"note": null,
					"degree": null,
					"velocity": 0,
					"level": 0,
					"direction": 0,
					"decay": 5,
					"mod": 0
				},
				{
					"note": null,
					"degree": null,
					"velocity": 0,
					"level": 0,
					"direction": 0,
					"decay": 5,
					"mod": 0
				},
				{
					"note": null,
					"degree": null,
					"velocity": 0,
					"level": 0,
					"direction": 0,
					"decay": 5,
					"mod": 0
				},
				{
					"note": null,
					"degree": null,
					"velocity": 0,
					"level": 0,
					"direction": 0,
					"decay": 5,
					"mod": 0
				},
				{
					"note": 61,
					"degree": 61,
					"velocity": 0,
					"level": 0,
					"direction": 0,
					"decay": 5,
					"mod": 5
				},
				{
					"note": null,
					"degree": null,
					"velocity": 0,
					"level": 2,
					"direction": 0,
					"decay": 5,
					"mod": 0
				},
				{ "note": 53, "degree": 53, "velocity": 0, "level": 0, "direction": 0, "decay": 5 },
				{
					"note": null,
					"degree": null,
					"velocity": 0,
					"level": 0,
					"direction": 0,
					"decay": 5,
					"mod": 0
				},
				{
					"note": null,
					"degree": null,
					"velocity": 0,
					"level": 0,
					"direction": 0,
					"decay": 5,
					"mod": 0
				},
				{ "note": 55, "degree": 55, "velocity": 0, "level": 0, "direction": 0, "decay": 5 },
				{
					"note": null,
					"degree": null,
					"velocity": 0,
					"level": 0,
					"direction": 0,
					"decay": 5,
					"mod": 0
				},
				{
					"note": null,
					"degree": null,
					"velocity": 0,
					"level": 2,
					"direction": 0,
					"decay": 5,
					"mod": 0
				}
			],
			"arp": [
				{
					"note": null,
					"degree": null,
					"velocity": 0,
					"level": 0,
					"chordId": "maj",
					"decay": 5,
					"mod": 0,
					"direction": 0
				},
				{ "note": 60, "degree": 60, "velocity": 0, "level": 0, "chordId": "maj" },
				{ "note": 60, "degree": 60, "velocity": 0, "level": 0, "chordId": "maj" },
				{ "note": 60, "degree": 60, "velocity": 0, "level": 0, "chordId": "maj" },
				{
					"note": null,
					"degree": null,
					"velocity": 0,
					"level": 0,
					"chordId": "maj",
					"decay": 5,
					"mod": 0,
					"direction": 0
				},
				{ "note": 60, "degree": 60, "velocity": 0, "level": 0, "chordId": "maj" },
				{ "note": 60, "degree": 60, "velocity": 0, "level": 0, "chordId": "maj" },
				{ "note": 60, "degree": 60, "velocity": 0, "level": 0, "chordId": "maj" },
				{
					"note": null,
					"degree": null,
					"velocity": 0,
					"level": 0,
					"chordId": "maj",
					"decay": 5,
					"mod": 0,
					"direction": 0
				},
				{
					"note": null,
					"degree": null,
					"velocity": 0,
					"level": 0,
					"chordId": "maj",
					"decay": 5,
					"direction": 0,
					"mod": 0
				},
				{ "note": 60, "degree": 60, "velocity": 0, "level": 0, "chordId": "maj" },
				{ "note": 60, "degree": 60, "velocity": 0, "level": 0, "chordId": "maj" },
				{
					"note": null,
					"degree": null,
					"velocity": 0,
					"level": 0,
					"chordId": "maj",
					"decay": 5,
					"mod": 0,
					"direction": 0
				},
				{ "note": 60, "degree": 60, "velocity": 0, "level": 0, "chordId": "maj" },
				{ "note": 60, "degree": 60, "velocity": 0, "level": 0, "chordId": "maj" },
				{ "note": 60, "degree": 60, "velocity": 0, "level": 0, "chordId": "maj" }
			]
		}
	],
	"patternEnable": [true, true, true, false],
	"tempo": 120,
	"swing": 25,
	"trackName": "TRIP THROUGH TOWN",
	"currentUser": "MAN OF MOUNTAIN",
	"scaleId": "cmaj",
	"visualizerMode": 2
};
