export const demo1 = {"patterns":[{"drums":{"kick":[2,0,2,2,0,2,0,0,2,0,0,2,0,0,0,0],"snare":[0,0,0,0,0,0,0,2,0,2,0,0,0,0,2,0],"clap":[0,0,0,1,2,0,0,0,0,0,0,0,2,0,0,0],"hat":[0,2,0,1,0,1,2,0,0,2,1,0,0,2,0,2],"perc":[0,0,0,2,0,0,0,0,0,0,1,2,0,0,1,0],"bell":[0,0,0,0,0,0,0,0,0,0,0,0,0,0,0,0]},"channelSettings":{"drums":{"muted":false,"delayTime":"4n","delayFeedback":0},"bass":{"wave":"sine","decay":9,"muted":false},"lead":{"wave":"square","decay":6,"muted":false},"arp":{"wave":"sawtooth","decay":4,"muted":false}},"bass":[{"velocity":8,"level":2,"direction":0,"decay":5,"note":31,"degree":31,"mod":0},{"velocity":8,"level":2,"direction":0,"decay":5,"note":31,"degree":31,"mod":25},{"velocity":8,"level":2,"direction":0,"decay":5,"note":29,"degree":29,"mod":25},{"velocity":0,"level":0,"direction":0,"decay":5},{"velocity":8,"level":2,"direction":0,"decay":5,"note":33,"degree":33},{"velocity":0,"level":0,"direction":0,"decay":5},{"velocity":8,"level":2,"direction":0,"decay":5,"note":38,"degree":38},{"velocity":0,"level":0,"direction":0,"decay":5},{"velocity":8,"level":2,"direction":0,"decay":5,"note":24,"degree":24},{"velocity":8,"level":2,"direction":0,"decay":5,"note":29,"degree":29},{"velocity":0,"level":0,"direction":0,"decay":5,"note":null,"degree":null,"mod":0},{"velocity":8,"level":2,"direction":0,"decay":5,"note":31,"degree":31},{"velocity":8,"level":2,"direction":0,"decay":5,"note":29,"degree":29},{"velocity":0,"level":0,"direction":0,"decay":5,"note":null,"degree":null,"mod":0},{"velocity":7,"level":2,"direction":0,"decay":5,"note":24,"degree":24,"mod":55},{"velocity":0,"level":0,"direction":0,"decay":5,"note":null,"degree":null,"mod":0}],"lead":[{"velocity":6,"level":2,"direction":0,"decay":5,"note":48,"degree":48,"mod":35},{"velocity":6,"level":2,"direction":0,"decay":5,"note":50,"degree":50,"mod":45},{"velocity":0,"level":0,"direction":0,"decay":5,"note":null,"degree":null,"mod":0},{"velocity":0,"level":0,"direction":0,"decay":5,"note":null,"degree":null,"mod":0},{"velocity":6,"level":2,"direction":0,"decay":5,"note":52,"degree":52,"mod":10},{"velocity":6,"level":2,"direction":0,"decay":5,"note":38,"degree":38,"mod":0},{"velocity":6,"level":2,"direction":0,"decay":5,"note":24,"degree":24,"mod":0},{"velocity":6,"level":2,"direction":0,"decay":5,"note":41,"degree":41,"mod":45},{"velocity":6,"level":2,"direction":0,"decay":5,"note":53,"degree":53,"mod":30},{"velocity":0,"level":0,"direction":0,"decay":5,"note":null,"degree":null,"mod":0},{"velocity":6,"level":2,"direction":0,"decay":5,"note":52,"degree":52,"mod":20},{"velocity":0,"level":0,"direction":0,"decay":5,"note":null,"degree":null,"mod":0},{"velocity":6,"level":2,"direction":0,"decay":5,"note":48,"degree":48,"mod":20},{"velocity":6,"level":2,"direction":0,"decay":5,"note":53,"degree":53},{"velocity":6,"level":2,"direction":0,"decay":5,"note":40,"degree":40,"mod":100},{"velocity":6,"level":2,"direction":0,"decay":5,"note":48,"degree":48,"mod":25}],"arp":[{"velocity":9,"level":2,"chordId":"maj","decay":5,"note":55,"degree":55,"mod":100},{"velocity":9,"level":2,"chordId":"maj","decay":5,"note":43,"degree":43,"mod":100},{"velocity":0,"level":0,"chordId":null,"decay":5},{"velocity":0,"level":0,"chordId":null,"decay":5},{"velocity":9,"level":2,"chordId":"maj","decay":5,"note":43,"degree":43,"mod":100},{"velocity":0,"level":0,"chordId":null,"decay":5},{"velocity":9,"level":2,"chordId":"maj","decay":5,"note":67,"degree":67,"mod":100},{"velocity":0,"level":0,"chordId":null,"decay":5},{"velocity":8,"level":2,"chordId":"maj","decay":5,"note":60,"degree":60,"mod":100},{"velocity":0,"level":0,"chordId":null,"decay":5},{"velocity":0,"level":0,"chordId":null,"decay":5},{"velocity":9,"level":2,"chordId":"maj","decay":5,"note":65,"degree":65,"mod":85},{"velocity":9,"level":2,"chordId":"maj","decay":5,"note":53,"degree":53,"mod":100},{"velocity":8,"level":2,"chordId":"maj","decay":5,"note":65,"degree":65,"mod":65},{"velocity":0,"level":0,"chordId":null,"decay":5},{"velocity":0,"level":0,"chordId":null,"decay":5}]},{"drums":{"kick":[2,0,2,2,0,2,0,0,2,0,0,2,0,0,0,0],"snare":[2,0,2,0,0,0,0,2,0,2,0,0,0,0,2,0],"clap":[2,0,1,1,2,0,0,0,0,0,0,0,2,0,0,0],"hat":[0,2,0,1,0,1,2,0,0,2,1,0,0,2,0,2],"perc":[0,0,0,2,0,0,0,0,0,0,1,2,0,0,1,0],"bell":[0,0,0,0,0,0,0,0,0,0,0,0,0,0,0,0]},"channelSettings":{"drums":{"muted":false,"delayTime":"4n","delayFeedback":0},"bass":{"wave":"sine","decay":9,"muted":false},"lead":{"wave":"square","decay":5,"muted":false},"arp":{"wave":"sawtooth","decay":5,"muted":false}},"bass":[{"velocity":8,"level":2,"direction":0,"decay":5,"note":43,"degree":43,"mod":0},{"velocity":8,"level":2,"direction":0,"decay":5,"note":55,"degree":55,"mod":65},{"velocity":8,"level":2,"direction":0,"decay":5,"note":29,"degree":29,"mod":25},{"velocity":8,"level":2,"direction":0,"decay":5,"note":67,"degree":67,"mod":90},{"velocity":0,"level":0,"direction":0,"decay":5,"note":null,"degree":null,"mod":0},{"velocity":0,"level":0,"direction":0,"decay":5},{"velocity":8,"level":2,"direction":0,"decay":5,"note":38,"degree":38},{"velocity":7,"level":2,"direction":0,"decay":5,"note":60,"degree":60,"mod":100},{"velocity":0,"level":0,"direction":0,"decay":5,"note":null,"degree":null,"mod":0},{"velocity":8,"level":2,"direction":0,"decay":5,"note":29,"degree":29},{"velocity":0,"level":0,"direction":0,"decay":5,"note":null,"degree":null,"mod":0},{"velocity":8,"level":2,"direction":0,"decay":5,"note":31,"degree":31},{"velocity":8,"level":2,"direction":0,"decay":5,"note":29,"degree":29},{"velocity":0,"level":0,"direction":0,"decay":5,"note":null,"degree":null,"mod":0},{"velocity":7,"level":2,"direction":0,"decay":5,"note":24,"degree":24,"mod":55},{"velocity":0,"level":0,"direction":0,"decay":5,"note":null,"degree":null,"mod":0}],"lead":[{"velocity":6,"level":2,"direction":0,"decay":5,"note":48,"degree":48,"mod":35},{"velocity":6,"level":2,"direction":0,"decay":5,"note":43,"degree":43,"mod":0},{"velocity":0,"level":0,"direction":0,"decay":5,"note":null,"degree":null,"mod":0},{"velocity":6,"level":2,"direction":0,"decay":5,"note":43,"degree":43,"mod":0},{"velocity":6,"level":2,"direction":0,"decay":5,"note":52,"degree":52,"mod":30},{"velocity":6,"level":2,"direction":0,"decay":5,"note":26,"degree":26,"mod":0},{"velocity":6,"level":2,"direction":0,"decay":5,"note":36,"degree":36,"mod":0},{"velocity":6,"level":2,"direction":0,"decay":5,"note":41,"degree":41,"mod":45},{"velocity":6,"level":2,"direction":0,"decay":5,"note":55,"degree":55,"mod":50},{"velocity":0,"level":0,"direction":0,"decay":5,"note":null,"degree":null,"mod":0},{"velocity":6,"level":2,"direction":0,"decay":5,"note":52,"degree":52,"mod":0},{"velocity":0,"level":0,"direction":0,"decay":5,"note":null,"degree":null,"mod":0},{"velocity":6,"level":2,"direction":0,"decay":5,"note":50,"degree":50,"mod":20},{"velocity":6,"level":2,"direction":0,"decay":5,"note":28,"degree":28},{"velocity":6,"level":2,"direction":0,"decay":5,"note":38,"degree":38,"mod":100},{"velocity":6,"level":2,"direction":0,"decay":5,"note":48,"degree":48,"mod":0}],"arp":[{"velocity":9,"level":2,"chordId":"maj","decay":5,"note":55,"degree":55,"mod":100},{"velocity":9,"level":2,"chordId":"maj","decay":5,"note":43,"degree":43,"mod":100},{"velocity":0,"level":0,"chordId":null,"decay":5},{"velocity":0,"level":0,"chordId":null,"decay":5},{"velocity":9,"level":2,"chordId":"maj","decay":5,"note":43,"degree":43,"mod":100},{"velocity":0,"level":0,"chordId":null,"decay":5},{"velocity":9,"level":2,"chordId":"maj","decay":5,"note":67,"degree":67,"mod":100},{"velocity":0,"level":0,"chordId":null,"decay":5},{"velocity":8,"level":2,"chordId":"maj","decay":5,"note":60,"degree":60,"mod":100},{"velocity":0,"level":0,"chordId":null,"decay":5},{"velocity":0,"level":0,"chordId":null,"decay":5},{"velocity":9,"level":2,"chordId":"maj","decay":5,"note":65,"degree":65,"mod":85},{"velocity":9,"level":2,"chordId":"maj","decay":5,"note":53,"degree":53,"mod":100},{"velocity":8,"level":2,"chordId":"maj","decay":5,"note":65,"degree":65,"mod":65},{"velocity":0,"level":0,"chordId":null,"decay":5},{"velocity":0,"level":0,"chordId":null,"decay":5}]},{"drums":{"kick":[2,0,2,2,0,2,0,0,2,0,0,2,0,0,0,0],"snare":[0,0,0,0,0,0,0,2,0,2,0,0,0,0,2,2],"clap":[0,0,0,1,2,0,0,0,0,0,0,0,2,0,0,1],"hat":[0,2,0,1,0,1,2,0,0,2,1,0,0,2,0,2],"perc":[0,0,0,2,0,0,0,0,0,0,1,2,0,0,1,2],"bell":[0,0,0,0,0,0,0,0,0,0,0,0,0,0,0,0]},"channelSettings":{"drums":{"muted":false,"delayTime":"4n","delayFeedback":0},"bass":{"wave":"sine","decay":9,"muted":false},"lead":{"wave":"square","decay":5,"muted":false},"arp":{"wave":"sawtooth","decay":5,"muted":false}},"bass":[{"velocity":8,"level":2,"direction":0,"decay":5,"note":31,"degree":31,"mod":0},{"velocity":8,"level":2,"direction":0,"decay":5,"note":31,"degree":31,"mod":25},{"velocity":0,"level":0,"direction":0,"decay":5},{"velocity":8,"level":2,"direction":0,"decay":5,"note":33,"degree":33},{"velocity":0,"level":0,"direction":0,"decay":5},{"velocity":8,"level":2,"direction":0,"decay":5,"note":38,"degree":38},{"velocity":0,"level":0,"direction":0,"decay":5},{"velocity":8,"level":2,"direction":0,"decay":5,"note":24,"degree":24},{"velocity":8,"level":2,"direction":0,"decay":5,"note":29,"degree":29},{"velocity":0,"level":0,"direction":0,"decay":5,"note":null,"degree":null,"mod":0},{"velocity":8,"level":2,"direction":0,"decay":5,"note":31,"degree":31},{"velocity":8,"level":2,"direction":0,"decay":5,"note":29,"degree":29},{"velocity":0,"level":0,"direction":0,"decay":5,"note":null,"degree":null,"mod":0},{"velocity":7,"level":2,"direction":0,"decay":5,"note":24,"degree":24,"mod":55},{"velocity":0,"level":0,"direction":0,"decay":5,"note":null,"degree":null,"mod":0}],"lead":[{"velocity":6,"level":2,"direction":0,"decay":5,"note":48,"degree":48,"mod":50},{"velocity":6,"level":2,"direction":0,"decay":5,"note":50,"degree":50,"mod":40},{"velocity":0,"level":0,"direction":0,"decay":5,"note":null,"degree":null,"mod":0},{"velocity":0,"level":0,"direction":0,"decay":5,"note":null,"degree":null,"mod":0},{"velocity":6,"level":2,"direction":0,"decay":5,"note":52,"degree":52,"mod":10},{"velocity":0,"level":0,"direction":0,"decay":5,"note":null,"degree":null,"mod":0},{"velocity":6,"level":2,"direction":0,"decay":5,"note":50,"degree":50,"mod":0},{"velocity":6,"level":2,"direction":0,"decay":5,"note":29,"degree":29,"mod":45},{"velocity":6,"level":2,"direction":0,"decay":5,"note":41,"degree":41,"mod":10},{"velocity":0,"level":0,"direction":0,"decay":5,"note":null,"degree":null,"mod":0},{"velocity":6,"level":2,"direction":0,"decay":5,"note":52,"degree":52,"mod":5},{"velocity":0,"level":0,"direction":0,"decay":5,"note":null,"degree":null,"mod":0},{"velocity":6,"level":2,"direction":0,"decay":5,"note":48,"degree":48,"mod":20},{"velocity":0,"level":0,"direction":0,"decay":5,"note":null,"degree":null,"mod":0},{"velocity":6,"level":2,"direction":0,"decay":5,"note":31,"degree":31,"mod":50},{"velocity":6,"level":2,"direction":0,"decay":5,"note":45,"degree":45,"mod":55}],"arp":[{"velocity":9,"level":2,"chordId":"maj","decay":5,"note":55,"degree":55,"mod":100},{"velocity":9,"level":2,"chordId":"maj","decay":5,"note":43,"degree":43,"mod":100},{"velocity":0,"level":0,"chordId":null,"decay":5},{"velocity":0,"level":0,"chordId":null,"decay":5},{"velocity":9,"level":2,"chordId":"maj","decay":5,"note":43,"degree":43,"mod":100},{"velocity":0,"level":0,"chordId":null,"decay":5},{"velocity":9,"level":2,"chordId":"maj","decay":5,"note":67,"degree":67,"mod":100},{"velocity":0,"level":0,"chordId":null,"decay":5},{"velocity":8,"level":2,"chordId":"maj","decay":5,"note":60,"degree":60,"mod":100},{"velocity":0,"level":0,"chordId":null,"decay":5},{"velocity":0,"level":0,"chordId":null,"decay":5},{"velocity":9,"level":2,"chordId":"maj","decay":5,"note":65,"degree":65,"mod":85},{"velocity":9,"level":2,"chordId":"maj","decay":5,"note":53,"degree":53,"mod":100},{"velocity":8,"level":2,"chordId":"maj","decay":5,"note":65,"degree":65,"mod":65},{"velocity":0,"level":0,"chordId":null,"decay":5},{"velocity":0,"level":0,"chordId":null,"decay":5}]},{"drums":{"kick":[2,0,2,2,0,2,0,0,2,0,2,0,0,0,0,0],"snare":[0,0,0,0,0,0,0,2,0,2,0,0,0,0,2,0],"clap":[0,0,0,1,2,0,0,0,0,0,0,0,2,0,0,0],"hat":[0,2,0,1,0,1,2,0,0,2,1,2,0,2,0,2],"perc":[0,0,0,2,0,0,0,0,2,0,2,1,0,0,1,0],"bell":[0,0,0,0,0,0,0,0,0,0,0,0,0,0,0,0]},"channelSettings":{"drums":{"muted":false,"delayTime":"4n","delayFeedback":0},"bass":{"wave":"sine","decay":6,"muted":false},"lead":{"wave":"square","decay":8,"muted":false},"arp":{"wave":"sawtooth","decay":4,"muted":false}},"bass":[{"velocity":8,"level":2,"direction":0,"decay":5,"note":31,"degree":31,"mod":0},{"velocity":8,"level":2,"direction":0,"decay":5,"note":31,"degree":31,"mod":25},{"velocity":8,"level":2,"direction":0,"decay":5,"note":29,"degree":29,"mod":25},{"velocity":8,"level":2,"direction":0,"decay":5,"note":60,"degree":60,"mod":65},{"velocity":0,"level":0,"direction":0,"decay":5,"note":null,"degree":null,"mod":0},{"velocity":0,"level":0,"direction":0,"decay":5},{"velocity":8,"level":2,"direction":0,"decay":5,"note":38,"degree":38},{"velocity":0,"level":0,"direction":0,"decay":5},{"velocity":8,"level":2,"direction":0,"decay":5,"note":24,"degree":24},{"velocity":8,"level":2,"direction":0,"decay":5,"note":29,"degree":29},{"velocity":0,"level":0,"direction":0,"decay":5,"note":null,"degree":null,"mod":0},{"velocity":8,"level":2,"direction":0,"decay":5,"note":31,"degree":31},{"velocity":8,"level":2,"direction":0,"decay":5,"note":29,"degree":29},{"velocity":0,"level":0,"direction":0,"decay":5,"note":null,"degree":null,"mod":0},{"velocity":7,"level":2,"direction":0,"decay":5,"note":24,"degree":24,"mod":55},{"velocity":0,"level":0,"direction":0,"decay":5,"note":null,"degree":null,"mod":0}],"lead":[{"velocity":6,"level":2,"direction":0,"decay":5,"note":55,"degree":55,"mod":45},{"velocity":0,"level":0,"direction":0,"decay":5},{"velocity":6,"level":2,"direction":0,"decay":5,"note":55,"degree":55,"mod":25},{"velocity":0,"level":0,"direction":0,"decay":5,"note":null,"degree":null,"mod":0},{"velocity":6,"level":2,"direction":0,"decay":5,"note":41,"degree":41,"mod":10},{"velocity":6,"level":2,"direction":0,"decay":5,"note":53,"degree":53,"mod":0},{"velocity":6,"level":2,"direction":0,"decay":5,"note":55,"degree":55},{"velocity":6,"level":2,"direction":0,"decay":5,"note":57,"degree":57,"mod":30},{"velocity":6,"level":2,"direction":0,"decay":5,"note":60,"degree":60,"mod":30},{"velocity":6,"level":2,"direction":0,"decay":5,"note":53,"degree":53,"mod":0},{"velocity":6,"level":2,"direction":0,"decay":5,"note":64,"degree":64,"mod":10},{"velocity":6,"level":2,"direction":0,"decay":5,"note":65,"degree":65,"mod":35},{"velocity":6,"level":2,"direction":0,"decay":5,"note":55,"degree":55,"mod":20},{"velocity":6,"level":2,"direction":0,"decay":5,"note":53,"degree":53},{"velocity":6,"level":2,"direction":0,"decay":5,"note":52,"degree":52,"mod":0},{"velocity":6,"level":2,"direction":0,"decay":5,"note":48,"degree":48,"mod":25}],"arp":[{"velocity":9,"level":2,"chordId":"maj","decay":5,"note":55,"degree":55,"mod":100},{"velocity":9,"level":2,"chordId":"maj","decay":5,"note":67,"degree":67,"mod":100},{"velocity":0,"level":0,"chordId":null,"decay":5},{"velocity":0,"level":0,"chordId":null,"decay":5},{"velocity":9,"level":2,"chordId":"maj","decay":5,"note":43,"degree":43,"mod":100},{"velocity":0,"level":0,"chordId":null,"decay":5},{"velocity":9,"level":2,"chordId":"maj","decay":5,"note":67,"degree":67,"mod":90},{"velocity":0,"level":0,"chordId":null,"decay":5},{"velocity":8,"level":2,"chordId":"maj","decay":5,"note":60,"degree":60,"mod":90},{"velocity":0,"level":0,"chordId":null,"decay":5},{"velocity":0,"level":0,"chordId":null,"decay":5},{"velocity":9,"level":2,"chordId":"maj","decay":5,"note":65,"degree":65,"mod":35},{"velocity":9,"level":2,"chordId":"maj","decay":5,"note":53,"degree":53,"mod":100},{"velocity":0,"level":0,"chordId":null,"decay":5},{"velocity":8,"level":2,"chordId":"maj","decay":5,"note":65,"degree":65,"mod":100},{"velocity":0,"level":0,"chordId":null,"decay":5}]}],"patternEnable":[true,true,true,true],"tempo":140,"swing":60,"trackName":"DEMO SONG 1","currentUser":"DANNE DYNAMIT","scaleId":"cmaj","visualizerMode":6};