export const demo2 = {
  "visualizerMode": 5,
  "patterns": [
    {
      "drums": {
        "kick": [
          2,
          0,
          0,
          0,
          1,
          0,
          0,
          2,
          2,
          0,
          0,
          0,
          1,
          0,
          0,
          0
        ],
        "snare": [
          0,
          0,
          0,
          0,
          2,
          0,
          0,
          0,
          0,
          0,
          0,
          0,
          2,
          0,
          0,
          0
        ],
        "clap": [
          0,
          0,
          0,
          0,
          0,
          0,
          0,
          0,
          0,
          0,
          0,
          0,
          0,
          0,
          0,
          0
        ],
        "hat": [
          1,
          0,
          2,
          0,
          1,
          0,
          1,
          0,
          1,
          0,
          2,
          0,
          1,
          2,
          1,
          0
        ],
        "perc": [
          0,
          0,
          0,
          2,
          0,
          0,
          0,
          0,
          0,
          0,
          0,
          2,
          0,
          0,
          0,
          0
        ],
        "bell": [
          0,
          0,
          0,
          0,
          0,
          0,
          0,
          0,
          0,
          0,
          0,
          0,
          0,
          0,
          0,
          0
        ]
      },
      "channelSettings": {
        "drums": {
          "muted": false,
          "delayTime": "4n",
          "delayFeedback": 0
        },
        "bass": {
          "wave": "sine",
          "decay": 9
        },
        "lead": {
          "wave": "square",
          "decay": 8
        },
        "arp": {
          "wave": "sawtooth",
          "decay": 10
        }
      },
      "bass": [
        {
          "note": 29,
          "degree": 29,
          "velocity": 8,
          "level": 2,
          "direction": 0,
          "decay": 5
        },
        {
          "note": 24,
          "degree": 24,
          "velocity": 0,
          "level": 0,
          "direction": 0,
          "decay": 5
        },
        {
          "note": 31,
          "degree": 31,
          "velocity": 0,
          "level": 2,
          "direction": 0,
          "decay": 5
        },
        {
          "note": 24,
          "degree": 24,
          "velocity": 0,
          "level": 0,
          "direction": 0,
          "decay": 5
        },
        {
          "note": 24,
          "degree": 24,
          "velocity": 8,
          "level": 2,
          "direction": 0,
          "decay": 5
        },
        {
          "note": 24,
          "degree": 24,
          "velocity": 0,
          "level": 0,
          "direction": 0,
          "decay": 5
        },
        {
          "note": 24,
          "degree": 24,
          "velocity": 0,
          "level": 0,
          "direction": 0,
          "decay": 5
        },
        {
          "note": 24,
          "degree": 24,
          "velocity": 0,
          "level": 0,
          "direction": 0,
          "decay": 5
        },
        {
          "note": 33,
          "degree": 33,
          "velocity": 8,
          "level": 2,
          "direction": 0,
          "decay": 5
        },
        {
          "note": 24,
          "degree": 24,
          "velocity": 0,
          "level": 0,
          "direction": 0,
          "decay": 5
        },
        {
          "note": 24,
          "degree": 24,
          "velocity": 0,
          "level": 0,
          "direction": 0,
          "decay": 5
        },
        {
          "note": 24,
          "degree": 24,
          "velocity": 0,
          "level": 0,
          "direction": 0,
          "decay": 5
        },
        {
          "note": 36,
          "degree": 36,
          "velocity": 8,
          "level": 2,
          "direction": 0,
          "decay": 5
        },
        {
          "note": 24,
          "degree": 24,
          "velocity": 0,
          "level": 0,
          "direction": 0,
          "decay": 5
        },
        {
          "note": 24,
          "degree": 24,
          "velocity": 0,
          "level": 0,
          "direction": 0,
          "decay": 5
        },
        {
          "note": 24,
          "degree": 24,
          "velocity": 0,
          "level": 0,
          "direction": 0,
          "decay": 5
        }
      ],
      "lead": [
        {
          "note": 48,
          "degree": 48,
          "velocity": 0,
          "level": 0,
          "direction": 0,
          "decay": 5
        },
        {
          "note": 48,
          "degree": 48,
          "velocity": 0,
          "level": 0,
          "direction": 0,
          "decay": 5
        },
        {
          "note": 57,
          "degree": 57,
          "velocity": 0,
          "level": 0,
          "direction": 0,
          "decay": 5,
          "mod": 15
        },
        {
          "note": 48,
          "degree": 48,
          "velocity": 0,
          "level": 0,
          "direction": 0,
          "decay": 5
        },
        {
          "note": 55,
          "degree": 55,
          "velocity": 0,
          "level": 0,
          "direction": 0,
          "decay": 5,
          "mod": 15
        },
        {
          "note": 55,
          "degree": 55,
          "velocity": 0,
          "level": 0,
          "direction": 0,
          "decay": 5
        },
        {
          "note": 52,
          "degree": 52,
          "velocity": 0,
          "level": 0,
          "direction": 0,
          "decay": 5,
          "mod": 20
        },
        {
          "note": 48,
          "degree": 48,
          "velocity": 0,
          "level": 0,
          "direction": 0,
          "decay": 5
        },
        {
          "note": 50,
          "degree": 50,
          "velocity": 0,
          "level": 0,
          "direction": 0,
          "decay": 5,
          "mod": 20
        },
        {
          "note": 48,
          "degree": 48,
          "velocity": 0,
          "level": 0,
          "direction": 0,
          "decay": 5,
          "mod": 20
        },
        {
          "note": 48,
          "degree": 48,
          "velocity": 0,
          "level": 0,
          "direction": 0,
          "decay": 5
        },
        {
          "note": 52,
          "degree": 52,
          "velocity": 0,
          "level": 0,
          "direction": 0,
          "decay": 5
        },
        {
          "note": 50,
          "degree": 50,
          "velocity": 0,
          "level": 0,
          "direction": 0,
          "decay": 5,
          "mod": 15
        },
        {
          "note": 52,
          "degree": 52,
          "velocity": 0,
          "level": 0,
          "direction": 0,
          "decay": 5
        },
        {
          "note": 48,
          "degree": 48,
          "velocity": 0,
          "level": 0,
          "direction": 0,
          "decay": 5,
          "mod": 20
        },
        {
          "note": 50,
          "degree": 50,
          "velocity": 0,
          "level": 0,
          "direction": 0,
          "decay": 5
        }
      ],
      "arp": [
        {
          "note": 41,
          "degree": 41,
          "velocity": 8,
          "level": 2,
          "chordId": "min",
          "decay": 5,
          "mod": 40
        },
        {
          "note": 60,
          "degree": 60,
          "velocity": 0,
          "level": 0,
          "chordId": "maj"
        },
        {
          "note": 60,
          "degree": 60,
          "velocity": 0,
          "level": 0,
          "chordId": "maj"
        },
        {
          "note": 60,
          "degree": 60,
          "velocity": 0,
          "level": 0,
          "chordId": "maj"
        },
        {
          "note": null,
          "degree": 43,
          "velocity": 0,
          "level": 0,
          "chordId": null,
          "decay": 5,
          "mod": 40
        },
        {
          "note": 60,
          "degree": 60,
          "velocity": 0,
          "level": 0,
          "chordId": "maj"
        },
        {
          "note": 60,
          "degree": 60,
          "velocity": 0,
          "level": 0,
          "chordId": "maj",
          "decay": 5
        },
        {
          "note": 60,
          "degree": 60,
          "velocity": 0,
          "level": 0,
          "chordId": "maj",
          "decay": 5
        },
        {
          "note": 45,
          "degree": 45,
          "velocity": 8,
          "level": 2,
          "chordId": "min",
          "decay": 5,
          "mod": 35
        },
        {
          "note": 60,
          "degree": 60,
          "velocity": 0,
          "level": 0,
          "chordId": "maj"
        },
        {
          "note": 60,
          "degree": 60,
          "velocity": 0,
          "level": 0,
          "chordId": "maj"
        },
        {
          "note": 60,
          "degree": 60,
          "velocity": 0,
          "level": 0,
          "chordId": "maj"
        },
        {
          "note": 60,
          "degree": 60,
          "velocity": 0,
          "level": 0,
          "chordId": "maj"
        },
        {
          "note": 60,
          "degree": 60,
          "velocity": 0,
          "level": 0,
          "chordId": "maj"
        },
        {
          "note": 60,
          "degree": 60,
          "velocity": 0,
          "level": 0,
          "chordId": "maj"
        },
        {
          "note": 60,
          "degree": 60,
          "velocity": 0,
          "level": 0,
          "chordId": "maj"
        }
      ]
    },
    {
      "drums": {
        "kick": [
          2,
          0,
          0,
          0,
          1,
          0,
          0,
          2,
          2,
          0,
          0,
          0,
          1,
          0,
          0,
          0
        ],
        "snare": [
          0,
          0,
          0,
          0,
          2,
          0,
          0,
          0,
          0,
          0,
          0,
          0,
          2,
          0,
          0,
          0
        ],
        "clap": [
          0,
          0,
          0,
          0,
          0,
          0,
          0,
          0,
          0,
          0,
          0,
          0,
          0,
          0,
          0,
          0
        ],
        "hat": [
          1,
          0,
          2,
          0,
          1,
          0,
          1,
          0,
          1,
          0,
          2,
          0,
          1,
          2,
          1,
          0
        ],
        "perc": [
          0,
          0,
          0,
          2,
          0,
          0,
          0,
          0,
          0,
          0,
          0,
          2,
          0,
          0,
          0,
          0
        ],
        "bell": [
          0,
          0,
          0,
          0,
          0,
          0,
          0,
          0,
          0,
          0,
          0,
          0,
          0,
          0,
          0,
          0
        ]
      },
      "channelSettings": {
        "drums": {
          "muted": false,
          "delayTime": "4n",
          "delayFeedback": 0
        },
        "bass": {
          "wave": "sine",
          "decay": 9
        },
        "lead": {
          "wave": "square",
          "decay": 8
        },
        "arp": {
          "wave": "sawtooth",
          "decay": 10
        }
      },
      "bass": [
        {
          "note": 29,
          "degree": 29,
          "velocity": 8,
          "level": 2,
          "direction": 0,
          "decay": 5
        },
        {
          "note": 24,
          "degree": 24,
          "velocity": 0,
          "level": 0,
          "direction": 0,
          "decay": 5
        },
        {
          "note": 31,
          "degree": 31,
          "velocity": 0,
          "level": 2,
          "direction": 0,
          "decay": 5
        },
        {
          "note": 24,
          "degree": 24,
          "velocity": 0,
          "level": 0,
          "direction": 0,
          "decay": 5
        },
        {
          "note": 24,
          "degree": 24,
          "velocity": 0,
          "level": 0,
          "direction": 0,
          "decay": 5
        },
        {
          "note": 24,
          "degree": 24,
          "velocity": 0,
          "level": 0,
          "direction": 0,
          "decay": 5
        },
        {
          "note": 24,
          "degree": 24,
          "velocity": 0,
          "level": 0,
          "direction": 0,
          "decay": 5
        },
        {
          "note": 24,
          "degree": 24,
          "velocity": 0,
          "level": 0,
          "direction": 0,
          "decay": 5
        },
        {
          "note": 33,
          "degree": 33,
          "velocity": 8,
          "level": 2,
          "direction": 0,
          "decay": 5
        },
        {
          "note": 24,
          "degree": 24,
          "velocity": 0,
          "level": 0,
          "direction": 0,
          "decay": 5
        },
        {
          "note": 24,
          "degree": 24,
          "velocity": 0,
          "level": 0,
          "direction": 0,
          "decay": 5
        },
        {
          "note": 24,
          "degree": 24,
          "velocity": 0,
          "level": 0,
          "direction": 0,
          "decay": 5
        },
        {
          "note": 24,
          "degree": 24,
          "velocity": 0,
          "level": 0,
          "direction": 0,
          "decay": 5
        },
        {
          "note": 24,
          "degree": 24,
          "velocity": 0,
          "level": 0,
          "direction": 0,
          "decay": 5
        },
        {
          "note": 24,
          "degree": 24,
          "velocity": 0,
          "level": 0,
          "direction": 0,
          "decay": 5
        },
        {
          "note": 24,
          "degree": 24,
          "velocity": 0,
          "level": 0,
          "direction": 0,
          "decay": 5
        }
      ],
      "lead": [
        {
          "note": 48,
          "degree": 48,
          "velocity": 0,
          "level": 0,
          "direction": 0,
          "decay": 5
        },
        {
          "note": 48,
          "degree": 48,
          "velocity": 0,
          "level": 0,
          "direction": 0,
          "decay": 5
        },
        {
          "note": 57,
          "degree": 57,
          "velocity": 7,
          "level": 2,
          "direction": 0,
          "decay": 5,
          "mod": 15
        },
        {
          "note": 48,
          "degree": 48,
          "velocity": 0,
          "level": 0,
          "direction": 0,
          "decay": 5
        },
        {
          "note": 55,
          "degree": 55,
          "velocity": 5,
          "level": 1,
          "direction": 0,
          "decay": 5,
          "mod": 15
        },
        {
          "note": 55,
          "degree": 55,
          "velocity": 0,
          "level": 2,
          "direction": 0,
          "decay": 5,
          "mod": 20
        },
        {
          "note": 52,
          "degree": 52,
          "velocity": 8,
          "level": 2,
          "direction": 0,
          "decay": 5,
          "mod": 20
        },
        {
          "note": 48,
          "degree": 48,
          "velocity": 0,
          "level": 0,
          "direction": 0,
          "decay": 5
        },
        {
          "note": 50,
          "degree": 50,
          "velocity": 8,
          "level": 2,
          "direction": 0,
          "decay": 5,
          "mod": 20
        },
        {
          "note": 48,
          "degree": 48,
          "velocity": 0,
          "level": 0,
          "direction": 0,
          "decay": 5,
          "mod": 20
        },
        {
          "note": 48,
          "degree": 48,
          "velocity": 0,
          "level": 0,
          "direction": 0,
          "decay": 5
        },
        {
          "note": 52,
          "degree": 52,
          "velocity": 8,
          "level": 2,
          "direction": 0,
          "decay": 5
        },
        {
          "note": 50,
          "degree": 50,
          "velocity": 8,
          "level": 2,
          "direction": 0,
          "decay": 5,
          "mod": 15
        },
        {
          "note": 52,
          "degree": 52,
          "velocity": 0,
          "level": 0,
          "direction": 0,
          "decay": 5
        },
        {
          "note": 48,
          "degree": 48,
          "velocity": 8,
          "level": 2,
          "direction": 0,
          "decay": 5,
          "mod": 20
        },
        {
          "note": 50,
          "degree": 50,
          "velocity": 0,
          "level": 0,
          "direction": 0,
          "decay": 5
        }
      ],
      "arp": [
        {
          "note": 41,
          "degree": 41,
          "velocity": 8,
          "level": 2,
          "chordId": "min",
          "decay": 5,
          "mod": 40
        },
        {
          "note": 60,
          "degree": 60,
          "velocity": 0,
          "level": 0,
          "chordId": "maj"
        },
        {
          "note": 60,
          "degree": 60,
          "velocity": 0,
          "level": 0,
          "chordId": "maj"
        },
        {
          "note": 60,
          "degree": 60,
          "velocity": 0,
          "level": 0,
          "chordId": "maj"
        },
        {
          "note": null,
          "degree": 43,
          "velocity": 0,
          "level": 0,
          "chordId": null,
          "decay": 5,
          "mod": 40
        },
        {
          "note": 60,
          "degree": 60,
          "velocity": 0,
          "level": 0,
          "chordId": "maj"
        },
        {
          "note": 60,
          "degree": 60,
          "velocity": 0,
          "level": 0,
          "chordId": "maj",
          "decay": 5
        },
        {
          "note": 60,
          "degree": 60,
          "velocity": 0,
          "level": 0,
          "chordId": "maj",
          "decay": 5
        },
        {
          "note": 45,
          "degree": 45,
          "velocity": 8,
          "level": 2,
          "chordId": "min",
          "decay": 5,
          "mod": 35
        },
        {
          "note": 60,
          "degree": 60,
          "velocity": 0,
          "level": 0,
          "chordId": "maj"
        },
        {
          "note": 60,
          "degree": 60,
          "velocity": 0,
          "level": 0,
          "chordId": "maj"
        },
        {
          "note": 60,
          "degree": 60,
          "velocity": 0,
          "level": 0,
          "chordId": "maj"
        },
        {
          "note": 60,
          "degree": 60,
          "velocity": 0,
          "level": 0,
          "chordId": "maj"
        },
        {
          "note": 60,
          "degree": 60,
          "velocity": 0,
          "level": 0,
          "chordId": "maj"
        },
        {
          "note": 60,
          "degree": 60,
          "velocity": 0,
          "level": 0,
          "chordId": "maj"
        },
        {
          "note": 60,
          "degree": 60,
          "velocity": 0,
          "level": 0,
          "chordId": "maj"
        }
      ]
    },
    {
      "drums": {
        "kick": [
          2,
          0,
          0,
          0,
          1,
          0,
          0,
          2,
          2,
          0,
          0,
          0,
          1,
          0,
          0,
          0
        ],
        "snare": [
          0,
          0,
          0,
          0,
          2,
          0,
          0,
          0,
          0,
          0,
          0,
          0,
          2,
          0,
          0,
          0
        ],
        "clap": [
          0,
          0,
          0,
          0,
          0,
          0,
          0,
          0,
          0,
          0,
          0,
          0,
          0,
          0,
          0,
          0
        ],
        "hat": [
          1,
          0,
          2,
          0,
          1,
          0,
          1,
          0,
          1,
          0,
          2,
          0,
          1,
          2,
          1,
          0
        ],
        "perc": [
          0,
          0,
          0,
          2,
          0,
          0,
          0,
          0,
          0,
          0,
          0,
          2,
          0,
          0,
          0,
          0
        ],
        "bell": [
          0,
          0,
          0,
          0,
          0,
          0,
          0,
          0,
          0,
          0,
          0,
          0,
          0,
          0,
          0,
          0
        ]
      },
      "channelSettings": {
        "drums": {
          "muted": false,
          "delayTime": "4n",
          "delayFeedback": 0
        },
        "bass": {
          "wave": "sine",
          "decay": 9
        },
        "lead": {
          "wave": "square",
          "decay": 8
        },
        "arp": {
          "wave": "sawtooth",
          "decay": 10
        }
      },
      "bass": [
        {
          "note": 29,
          "degree": 29,
          "velocity": 8,
          "level": 2,
          "direction": 0,
          "decay": 5
        },
        {
          "note": 24,
          "degree": 24,
          "velocity": 0,
          "level": 0,
          "direction": 0,
          "decay": 5
        },
        {
          "note": 31,
          "degree": 31,
          "velocity": 0,
          "level": 2,
          "direction": 0,
          "decay": 5
        },
        {
          "note": 29,
          "degree": 29,
          "velocity": 8,
          "level": 2,
          "direction": 0,
          "decay": 5
        },
        {
          "note": 24,
          "degree": 24,
          "velocity": 8,
          "level": 2,
          "direction": 0,
          "decay": 5
        },
        {
          "note": 24,
          "degree": 24,
          "velocity": 0,
          "level": 0,
          "direction": 0,
          "decay": 5
        },
        {
          "note": 24,
          "degree": 24,
          "velocity": 0,
          "level": 0,
          "direction": 0,
          "decay": 5
        },
        {
          "note": 24,
          "degree": 24,
          "velocity": 0,
          "level": 0,
          "direction": 0,
          "decay": 5
        },
        {
          "note": 33,
          "degree": 33,
          "velocity": 8,
          "level": 2,
          "direction": 0,
          "decay": 5
        },
        {
          "note": 24,
          "degree": 24,
          "velocity": 0,
          "level": 0,
          "direction": 0,
          "decay": 5
        },
        {
          "note": 24,
          "degree": 24,
          "velocity": 0,
          "level": 0,
          "direction": 0,
          "decay": 5
        },
        {
          "note": 57,
          "degree": 57,
          "velocity": 3,
          "level": 1,
          "direction": 0,
          "decay": 5,
          "mod": 50
        },
        {
          "note": 24,
          "degree": 24,
          "velocity": 0,
          "level": 0,
          "direction": 0,
          "decay": 5
        },
        {
          "note": 57,
          "degree": 57,
          "velocity": 0,
          "level": 0,
          "direction": 0,
          "decay": 5,
          "mod": 30
        },
        {
          "note": 24,
          "degree": 24,
          "velocity": 0,
          "level": 0,
          "direction": 0,
          "decay": 5
        },
        {
          "note": 24,
          "degree": 24,
          "velocity": 0,
          "level": 0,
          "direction": 0,
          "decay": 5
        }
      ],
      "lead": [
        {
          "note": 36,
          "degree": 36,
          "velocity": 8,
          "level": 2,
          "direction": 0,
          "decay": 5,
          "mod": 45
        },
        {
          "note": 48,
          "degree": 48,
          "velocity": 0,
          "level": 0,
          "direction": 0,
          "decay": 5
        },
        {
          "note": 57,
          "degree": 57,
          "velocity": 0,
          "level": 0,
          "direction": 0,
          "decay": 5,
          "mod": 15
        },
        {
          "note": 48,
          "degree": 48,
          "velocity": 0,
          "level": 0,
          "direction": 0,
          "decay": 5
        },
        {
          "note": 55,
          "degree": 55,
          "velocity": 8,
          "level": 2,
          "direction": 0,
          "decay": 5,
          "mod": 15
        },
        {
          "note": 24,
          "degree": 24,
          "velocity": 0,
          "level": 0,
          "direction": 0,
          "decay": 5,
          "mod": 25
        },
        {
          "note": 52,
          "degree": 52,
          "velocity": 0,
          "level": 0,
          "direction": 0,
          "decay": 5,
          "mod": 20
        },
        {
          "note": 48,
          "degree": 48,
          "velocity": 0,
          "level": 0,
          "direction": 0,
          "decay": 5
        },
        {
          "note": 50,
          "degree": 50,
          "velocity": 0,
          "level": 0,
          "direction": 0,
          "decay": 5,
          "mod": 20
        },
        {
          "note": 48,
          "degree": 48,
          "velocity": 0,
          "level": 0,
          "direction": 0,
          "decay": 5,
          "mod": 20
        },
        {
          "note": 52,
          "degree": 52,
          "velocity": 8,
          "level": 2,
          "direction": 0,
          "decay": 5,
          "mod": 20
        },
        {
          "note": 52,
          "degree": 52,
          "velocity": 0,
          "level": 0,
          "direction": 0,
          "decay": 5
        },
        {
          "note": 55,
          "degree": 55,
          "velocity": 8,
          "level": 2,
          "direction": 0,
          "decay": 5,
          "mod": 30
        },
        {
          "note": 57,
          "degree": 57,
          "velocity": 8,
          "level": 2,
          "direction": 0,
          "decay": 5,
          "mod": 15
        },
        {
          "note": 48,
          "degree": 48,
          "velocity": 0,
          "level": 0,
          "direction": 0,
          "decay": 5,
          "mod": 20
        },
        {
          "note": 60,
          "degree": 60,
          "velocity": 8,
          "level": 2,
          "direction": 0,
          "decay": 5,
          "mod": 55
        }
      ],
      "arp": [
        {
          "note": 41,
          "degree": 41,
          "velocity": 8,
          "level": 2,
          "chordId": "min",
          "decay": 5,
          "mod": 40
        },
        {
          "note": 60,
          "degree": 60,
          "velocity": 0,
          "level": 0,
          "chordId": "maj"
        },
        {
          "note": 60,
          "degree": 60,
          "velocity": 0,
          "level": 0,
          "chordId": "maj"
        },
        {
          "note": 60,
          "degree": 60,
          "velocity": 0,
          "level": 0,
          "chordId": "maj"
        },
        {
          "note": null,
          "degree": 43,
          "velocity": 0,
          "level": 0,
          "chordId": null,
          "decay": 5,
          "mod": 40
        },
        {
          "note": 60,
          "degree": 60,
          "velocity": 0,
          "level": 0,
          "chordId": "maj"
        },
        {
          "note": 60,
          "degree": 60,
          "velocity": 0,
          "level": 0,
          "chordId": "maj",
          "decay": 5
        },
        {
          "note": 60,
          "degree": 60,
          "velocity": 0,
          "level": 0,
          "chordId": "maj",
          "decay": 5
        },
        {
          "note": 45,
          "degree": 45,
          "velocity": 8,
          "level": 2,
          "chordId": "min",
          "decay": 5,
          "mod": 35
        },
        {
          "note": 60,
          "degree": 60,
          "velocity": 0,
          "level": 0,
          "chordId": "maj"
        },
        {
          "note": 60,
          "degree": 60,
          "velocity": 0,
          "level": 0,
          "chordId": "maj"
        },
        {
          "note": 60,
          "degree": 60,
          "velocity": 0,
          "level": 0,
          "chordId": "maj"
        },
        {
          "note": 60,
          "degree": 60,
          "velocity": 0,
          "level": 0,
          "chordId": "maj"
        },
        {
          "note": 60,
          "degree": 60,
          "velocity": 0,
          "level": 0,
          "chordId": "maj"
        },
        {
          "note": 60,
          "degree": 60,
          "velocity": 0,
          "level": 0,
          "chordId": "maj"
        },
        {
          "note": 60,
          "degree": 60,
          "velocity": 0,
          "level": 0,
          "chordId": "maj"
        }
      ]
    },
    {
      "drums": {
        "kick": [
          2,
          0,
          0,
          0,
          1,
          0,
          0,
          2,
          2,
          0,
          0,
          0,
          1,
          0,
          0,
          0
        ],
        "snare": [
          0,
          0,
          0,
          0,
          2,
          0,
          0,
          0,
          0,
          0,
          0,
          0,
          2,
          0,
          0,
          0
        ],
        "clap": [
          0,
          0,
          0,
          0,
          0,
          0,
          0,
          0,
          0,
          0,
          0,
          0,
          0,
          0,
          0,
          0
        ],
        "hat": [
          1,
          0,
          2,
          0,
          1,
          0,
          1,
          0,
          1,
          0,
          2,
          0,
          1,
          2,
          1,
          0
        ],
        "perc": [
          0,
          0,
          0,
          2,
          0,
          0,
          0,
          0,
          0,
          0,
          0,
          2,
          0,
          0,
          0,
          0
        ],
        "bell": [
          0,
          0,
          0,
          0,
          0,
          0,
          0,
          0,
          0,
          0,
          0,
          0,
          0,
          0,
          0,
          0
        ]
      },
      "channelSettings": {
        "drums": {
          "muted": false,
          "delayTime": "4n",
          "delayFeedback": 0
        },
        "bass": {
          "wave": "sine",
          "decay": 9
        },
        "lead": {
          "wave": "square",
          "decay": 10
        },
        "arp": {
          "wave": "sawtooth",
          "decay": 10
        }
      },
      "bass": [
        {
          "note": 29,
          "degree": 29,
          "velocity": 8,
          "level": 2,
          "direction": 0,
          "decay": 5
        },
        {
          "note": 24,
          "degree": 24,
          "velocity": 0,
          "level": 0,
          "direction": 0,
          "decay": 5
        },
        {
          "note": 31,
          "degree": 31,
          "velocity": 0,
          "level": 2,
          "direction": 0,
          "decay": 5
        },
        {
          "note": 24,
          "degree": 24,
          "velocity": 0,
          "level": 0,
          "direction": 0,
          "decay": 5
        },
        {
          "note": 24,
          "degree": 24,
          "velocity": 0,
          "level": 0,
          "direction": 0,
          "decay": 5
        },
        {
          "note": 24,
          "degree": 24,
          "velocity": 0,
          "level": 0,
          "direction": 0,
          "decay": 5
        },
        {
          "note": 24,
          "degree": 24,
          "velocity": 0,
          "level": 0,
          "direction": 0,
          "decay": 5
        },
        {
          "note": 24,
          "degree": 24,
          "velocity": 0,
          "level": 0,
          "direction": 0,
          "decay": 5
        },
        {
          "note": 33,
          "degree": 33,
          "velocity": 8,
          "level": 2,
          "direction": 0,
          "decay": 5
        },
        {
          "note": 24,
          "degree": 24,
          "velocity": 0,
          "level": 0,
          "direction": 0,
          "decay": 5
        },
        {
          "note": 26,
          "degree": 26,
          "velocity": 9,
          "level": 2,
          "direction": 0,
          "decay": 5,
          "mod": 20
        },
        {
          "note": 24,
          "degree": 24,
          "velocity": 0,
          "level": 0,
          "direction": 0,
          "decay": 5
        },
        {
          "note": 24,
          "degree": 24,
          "velocity": 0,
          "level": 0,
          "direction": 0,
          "decay": 5
        },
        {
          "note": 24,
          "degree": 24,
          "velocity": 0,
          "level": 0,
          "direction": 0,
          "decay": 5
        },
        {
          "note": 57,
          "degree": 57,
          "velocity": 1,
          "level": 1,
          "direction": 0,
          "decay": 5,
          "mod": 40
        },
        {
          "note": 24,
          "degree": 24,
          "velocity": 0,
          "level": 0,
          "direction": 0,
          "decay": 5
        }
      ],
      "lead": [
        {
          "note": 67,
          "degree": 67,
          "velocity": 7,
          "level": 2,
          "direction": 0,
          "decay": 5,
          "mod": 35
        },
        {
          "note": 48,
          "degree": 48,
          "velocity": 0,
          "level": 0,
          "direction": 0,
          "decay": 5
        },
        {
          "note": 57,
          "degree": 57,
          "velocity": 0,
          "level": 0,
          "direction": 0,
          "decay": 5,
          "mod": 15
        },
        {
          "note": 48,
          "degree": 48,
          "velocity": 0,
          "level": 0,
          "direction": 0,
          "decay": 5
        },
        {
          "note": 55,
          "degree": 55,
          "velocity": 0,
          "level": 0,
          "direction": 0,
          "decay": 5,
          "mod": 15
        },
        {
          "note": 64,
          "degree": 64,
          "velocity": 8,
          "level": 2,
          "direction": 0,
          "decay": 5,
          "mod": 45
        },
        {
          "note": 52,
          "degree": 52,
          "velocity": 0,
          "level": 0,
          "direction": 0,
          "decay": 5,
          "mod": 20
        },
        {
          "note": 48,
          "degree": 48,
          "velocity": 0,
          "level": 0,
          "direction": 0,
          "decay": 5
        },
        {
          "note": 62,
          "degree": 62,
          "velocity": 5,
          "level": 1,
          "direction": 0,
          "decay": 5,
          "mod": 40
        },
        {
          "note": 48,
          "degree": 48,
          "velocity": 0,
          "level": 0,
          "direction": 0,
          "decay": 5,
          "mod": 20
        },
        {
          "note": 50,
          "degree": 50,
          "velocity": 2,
          "level": 1,
          "direction": 0,
          "decay": 5,
          "mod": 30
        },
        {
          "note": 60,
          "degree": 60,
          "velocity": 8,
          "level": 2,
          "direction": 0,
          "decay": 5,
          "mod": 30
        },
        {
          "note": 50,
          "degree": 50,
          "velocity": 0,
          "level": 0,
          "direction": 0,
          "decay": 5,
          "mod": 15
        },
        {
          "note": 52,
          "degree": 52,
          "velocity": 0,
          "level": 0,
          "direction": 0,
          "decay": 5
        },
        {
          "note": 48,
          "degree": 48,
          "velocity": 0,
          "level": 0,
          "direction": 0,
          "decay": 5,
          "mod": 20
        },
        {
          "note": 50,
          "degree": 50,
          "velocity": 0,
          "level": 0,
          "direction": 0,
          "decay": 5
        }
      ],
      "arp": [
        {
          "note": 41,
          "degree": 41,
          "velocity": 8,
          "level": 2,
          "chordId": "min",
          "decay": 5,
          "mod": 40
        },
        {
          "note": 60,
          "degree": 60,
          "velocity": 0,
          "level": 0,
          "chordId": "maj"
        },
        {
          "note": 60,
          "degree": 60,
          "velocity": 0,
          "level": 0,
          "chordId": "maj"
        },
        {
          "note": 60,
          "degree": 60,
          "velocity": 0,
          "level": 0,
          "chordId": "maj"
        },
        {
          "note": null,
          "degree": 43,
          "velocity": 0,
          "level": 0,
          "chordId": null,
          "decay": 5,
          "mod": 40
        },
        {
          "note": 60,
          "degree": 60,
          "velocity": 0,
          "level": 0,
          "chordId": "maj"
        },
        {
          "note": 60,
          "degree": 60,
          "velocity": 0,
          "level": 0,
          "chordId": "maj",
          "decay": 5
        },
        {
          "note": 60,
          "degree": 60,
          "velocity": 0,
          "level": 0,
          "chordId": "maj",
          "decay": 5
        },
        {
          "note": 45,
          "degree": 45,
          "velocity": 8,
          "level": 2,
          "chordId": "min",
          "decay": 5,
          "mod": 35
        },
        {
          "note": 60,
          "degree": 60,
          "velocity": 0,
          "level": 0,
          "chordId": "maj"
        },
        {
          "note": 60,
          "degree": 60,
          "velocity": 0,
          "level": 0,
          "chordId": "maj"
        },
        {
          "note": 60,
          "degree": 60,
          "velocity": 0,
          "level": 0,
          "chordId": "maj"
        },
        {
          "note": 60,
          "degree": 60,
          "velocity": 0,
          "level": 0,
          "chordId": "maj"
        },
        {
          "note": 60,
          "degree": 60,
          "velocity": 0,
          "level": 0,
          "chordId": "maj"
        },
        {
          "note": 60,
          "degree": 60,
          "velocity": 0,
          "level": 0,
          "chordId": "maj"
        },
        {
          "note": 60,
          "degree": 60,
          "velocity": 0,
          "level": 0,
          "chordId": "maj"
        }
      ]
    }
  ],
  "patternEnable": [
    true,
    true,
    true,
    true
  ],
  "tempo": 110,
  "swing": 20,
  "trackName": "DEMO SONG 2",
  "currentUser": "DANNE DYNAMIT",
  "scaleId": "cmaj",
  "visualizerMode": 5
};
